<svg width="24" height="24" viewBox="0 0 24 24" fill="none" xmlns="http://www.w3.org/2000/svg">
<path d="M12 2.03979C6.5 2.03979 2 6.5298 2 12.0598C2 17.0598 5.66 21.2098 10.44 21.9598V14.9598H7.9V12.0598H10.44V9.8498C10.44 7.3398 11.93 5.95979 14.22 5.95979C15.31 5.95979 16.45 6.1498 16.45 6.1498V8.61979H15.19C13.95 8.61979 13.56 9.3898 13.56 10.1798V12.0598H16.34L15.89 14.9598H13.56V21.9598C15.9164 21.5876 18.0622 20.3853 19.6099 18.5699C21.1576 16.7544 22.0053 14.4454 22 12.0598C22 6.5298 17.5 2.03979 12 2.03979Z" fill="#FFF5EE"/>
</svg>
