<svg width="24" height="24" viewBox="0 0 24 24" fill="none" xmlns="http://www.w3.org/2000/svg">
<path d="M13.0276 2.00024C14.1526 2.00324 14.7236 2.00924 15.2166 2.02324L15.4106 2.03024C15.6346 2.03824 15.8556 2.04824 16.1226 2.06024C17.1866 2.11024 17.9126 2.27824 18.5496 2.52524C19.2096 2.77924 19.7656 3.12324 20.3216 3.67824C20.8303 4.17798 21.2238 4.78272 21.4746 5.45024C21.7216 6.08724 21.8896 6.81324 21.9396 7.87824C21.9516 8.14424 21.9616 8.36524 21.9696 8.59024L21.9756 8.78424C21.9906 9.27624 21.9966 9.84724 21.9986 10.9722L21.9996 11.7182V13.0282C22.002 13.7576 21.9944 14.4871 21.9766 15.2162L21.9706 15.4102C21.9626 15.6352 21.9526 15.8562 21.9406 16.1222C21.8906 17.1872 21.7206 17.9122 21.4746 18.5502C21.2238 19.2178 20.8303 19.8225 20.3216 20.3222C19.8219 20.8309 19.2171 21.2244 18.5496 21.4752C17.9126 21.7222 17.1866 21.8902 16.1226 21.9402L15.4106 21.9702L15.2166 21.9762C14.7236 21.9902 14.1526 21.9972 13.0276 21.9992L12.2816 22.0002H10.9726C10.2429 22.0028 9.51311 21.9951 8.78359 21.9772L8.58959 21.9712C8.3522 21.9623 8.11486 21.9519 7.87759 21.9402C6.81359 21.8902 6.08759 21.7222 5.44959 21.4752C4.78242 21.2243 4.17803 20.8308 3.67859 20.3222C3.16954 19.8226 2.7757 19.2179 2.52459 18.5502C2.27759 17.9132 2.10959 17.1872 2.05959 16.1222L2.02959 15.4102L2.02459 15.2162C2.00616 14.4871 1.99782 13.7577 1.99959 13.0282V10.9722C1.99682 10.2428 2.00416 9.51344 2.02159 8.78424L2.02859 8.59024C2.03659 8.36524 2.04659 8.14424 2.05859 7.87824C2.10859 6.81324 2.27659 6.08824 2.52359 5.45024C2.77529 4.78244 3.16982 4.17768 3.67959 3.67824C4.17875 3.16979 4.78278 2.77632 5.44959 2.52524C6.08759 2.27824 6.81259 2.11024 7.87759 2.06024C8.14359 2.04824 8.36559 2.03824 8.58959 2.03024L8.78359 2.02424C9.51278 2.00648 10.2422 1.99881 10.9716 2.00124L13.0276 2.00024ZM11.9996 7.00024C10.6735 7.00024 9.40174 7.52703 8.46406 8.46471C7.52638 9.40239 6.99959 10.6742 6.99959 12.0002C6.99959 13.3263 7.52638 14.5981 8.46406 15.5358C9.40174 16.4735 10.6735 17.0002 11.9996 17.0002C13.3257 17.0002 14.5974 16.4735 15.5351 15.5358C16.4728 14.5981 16.9996 13.3263 16.9996 12.0002C16.9996 10.6742 16.4728 9.40239 15.5351 8.46471C14.5974 7.52703 13.3257 7.00024 11.9996 7.00024ZM11.9996 9.00024C12.3936 9.00018 12.7837 9.07771 13.1477 9.22841C13.5117 9.37912 13.8424 9.60004 14.1211 9.87857C14.3997 10.1571 14.6207 10.4878 14.7715 10.8517C14.9224 11.2157 15 11.6058 15.0001 11.9997C15.0002 12.3937 14.9226 12.7838 14.7719 13.1478C14.6212 13.5118 14.4003 13.8426 14.1218 14.1212C13.8432 14.3998 13.5126 14.6209 13.1486 14.7717C12.7847 14.9225 12.3946 15.0002 12.0006 15.0002C11.2049 15.0002 10.4419 14.6842 9.87927 14.1216C9.31666 13.559 9.00059 12.7959 9.00059 12.0002C9.00059 11.2046 9.31666 10.4415 9.87927 9.87892C10.4419 9.31631 11.2049 9.00024 12.0006 9.00024M17.2506 5.50024C16.9191 5.50024 16.6011 5.63194 16.3667 5.86636C16.1323 6.10078 16.0006 6.41872 16.0006 6.75024C16.0006 7.08176 16.1323 7.39971 16.3667 7.63413C16.6011 7.86855 16.9191 8.00024 17.2506 8.00024C17.5821 8.00024 17.9001 7.86855 18.1345 7.63413C18.3689 7.39971 18.5006 7.08176 18.5006 6.75024C18.5006 6.41872 18.3689 6.10078 18.1345 5.86636C17.9001 5.63194 17.5821 5.50024 17.2506 5.50024Z" fill="#FFF5EE"/>
</svg>
