<svg width="24" height="24" viewBox="0 0 24 24" fill="none" xmlns="http://www.w3.org/2000/svg">
<path d="M18.1375 10.1301C18.2732 10.1358 18.4016 10.1964 18.4957 10.2992C18.5898 10.4021 18.6424 10.5392 18.6424 10.6818C18.6424 10.8244 18.5898 10.9615 18.4957 11.0644C18.4016 11.1672 18.2732 11.2278 18.1375 11.2335H16.675V12.2179H18.1375C18.2081 12.215 18.2786 12.227 18.3447 12.2534C18.4108 12.2797 18.4712 12.3198 18.5222 12.3712C18.5732 12.4227 18.6137 12.4844 18.6414 12.5527C18.6691 12.621 18.6834 12.6945 18.6834 12.7687C18.6834 12.843 18.6691 12.9165 18.6414 12.9848C18.6137 13.0531 18.5732 13.1148 18.5222 13.1662C18.4712 13.2177 18.4108 13.2578 18.3447 13.2841C18.2786 13.3105 18.2081 13.3225 18.1375 13.3196H16.1492C16.0105 13.3189 15.8777 13.2606 15.7798 13.1575C15.682 13.0544 15.6269 12.9148 15.6267 12.7692V8.59443C15.6267 8.29255 15.8617 8.04317 16.1517 8.04317H18.14C18.2792 8.04351 18.4126 8.10193 18.5109 8.20555C18.6091 8.30918 18.6641 8.44954 18.6637 8.59574C18.6634 8.74195 18.6078 8.88203 18.5091 8.98516C18.4104 9.0883 18.2767 9.14604 18.1375 9.1457H16.675V10.1301H18.1375ZM14.925 12.7692C14.9243 12.9151 14.8686 13.0548 14.7701 13.1576C14.6715 13.2604 14.5381 13.318 14.3992 13.3178C14.3169 13.3195 14.2353 13.3006 14.1614 13.2625C14.0875 13.2245 14.0233 13.1684 13.9742 13.0991L11.9383 10.1966V12.7692C11.9292 12.9085 11.87 13.0389 11.7728 13.1342C11.6756 13.2294 11.5476 13.2824 11.4146 13.2824C11.2816 13.2824 11.1536 13.2294 11.0564 13.1342C10.9592 13.0389 10.9 12.9085 10.8908 12.7692V8.59443C10.8906 8.44922 10.9452 8.30985 11.0427 8.20684C11.1402 8.10384 11.2725 8.04561 11.4108 8.04492C11.5733 8.04492 11.7233 8.13592 11.8233 8.26717L13.875 11.181V8.59443C13.875 8.29255 14.11 8.04317 14.4 8.04317C14.6875 8.04317 14.925 8.29255 14.925 8.59443V12.7692ZM10.1408 12.7692C10.1407 12.8416 10.127 12.9132 10.1006 12.9801C10.0741 13.0469 10.0353 13.1076 9.98648 13.1587C9.93765 13.2098 9.87971 13.2503 9.81597 13.2779C9.75223 13.3055 9.68394 13.3197 9.615 13.3196C9.47634 13.3189 9.34357 13.2606 9.24568 13.1575C9.14778 13.0544 9.09272 12.9148 9.0925 12.7692V8.59443C9.0925 8.29255 9.3275 8.04317 9.6175 8.04317C9.90583 8.04317 10.1408 8.29255 10.1408 8.59443V12.7692ZM8.08583 13.3196H6.0975C5.95867 13.3186 5.82577 13.2604 5.72753 13.1574C5.62928 13.0544 5.57359 12.9149 5.5725 12.7692V8.59443C5.5725 8.29255 5.81 8.04317 6.0975 8.04317C6.3875 8.04317 6.6225 8.29255 6.6225 8.59443V12.2179H8.08583C8.22134 12.2236 8.34951 12.2841 8.44347 12.3868C8.53744 12.4895 8.58992 12.6263 8.58992 12.7687C8.58992 12.9111 8.53744 13.048 8.44347 13.1507C8.34951 13.2534 8.22134 13.3139 8.08583 13.3196ZM22 10.5247C22 5.82498 17.5125 2.00024 12 2.00024C6.4875 2.00024 2 5.82498 2 10.5247C2 14.7345 5.55833 18.2617 10.3625 18.932C10.6883 19.0037 11.1317 19.1577 11.2442 19.4482C11.3442 19.7116 11.31 20.1185 11.2758 20.3933L11.1392 21.2858C11.1017 21.5492 10.9392 22.3236 12.0133 21.8502C13.0892 21.3785 17.7767 18.2818 19.8767 15.7469C21.3133 14.094 22 12.4008 22 10.5247Z" fill="#FFF5EE"/>
</svg>
